<svg width="32" height="32" viewBox="0 0 32 32" fill="none" xmlns="http://www.w3.org/2000/svg">
  <!-- Background circle -->
  <circle cx="16" cy="16" r="15" fill="#000000" stroke="#FF0040" stroke-width="2"/>
  
  <!-- Web pattern -->
  <g stroke="#00BFFF" stroke-width="1" fill="none" opacity="0.8">
    <!-- Center point -->
    <circle cx="16" cy="16" r="1" fill="#FF0040"/>
    
    <!-- Radial lines -->
    <line x1="16" y1="16" x2="16" y2="4"/>
    <line x1="16" y1="16" x2="28" y2="16"/>
    <line x1="16" y1="16" x2="16" y2="28"/>
    <line x1="16" y1="16" x2="4" y2="16"/>
    <line x1="16" y1="16" x2="24" y2="8"/>
    <line x1="16" y1="16" x2="24" y2="24"/>
    <line x1="16" y1="16" x2="8" y2="24"/>
    <line x1="16" y1="16" x2="8" y2="8"/>
    
    <!-- Concentric circles -->
    <circle cx="16" cy="16" r="6" opacity="0.6"/>
    <circle cx="16" cy="16" r="10" opacity="0.4"/>
    <circle cx="16" cy="16" r="14" opacity="0.2"/>
  </g>
  
  <!-- Web connection points -->
  <g fill="#FF0040" opacity="0.9">
    <circle cx="16" cy="4" r="1"/>
    <circle cx="28" cy="16" r="1"/>
    <circle cx="16" cy="28" r="1"/>
    <circle cx="4" cy="16" r="1"/>
    <circle cx="24" cy="8" r="1"/>
    <circle cx="24" cy="24" r="1"/>
    <circle cx="8" cy="24" r="1"/>
    <circle cx="8" cy="8" r="1"/>
  </g>
  
  <!-- Glow effect -->
  <circle cx="16" cy="16" r="15" fill="none" stroke="#FF0040" stroke-width="1" opacity="0.3">
    <animate attributeName="opacity" values="0.3;0.8;0.3" dur="2s" repeatCount="indefinite"/>
  </circle>
</svg>
